# xmcd
#
# Track frame offsets: 
#        150
#        16250
#        37221
#        52784
#        74091
#        97742
#        114345
#        132470
#        151310
#        168483
#        186786
#        205877
#
# Disc length: 2998 seconds
#
# Revision: 0
# Processed by: cddbd v1.5.1PL0 Copyright (c) Steve Scherf et al.
# Submitted via: ExactAudioCopy v0.95a5
#
DISCID=a00bb40c
DTITLE=Kathleen Cairns and Tattoo Blue - What's Left Don't Feel Right
DYEAR=2003
DGENRE=Blues
TTITLE0=Faultine
TTITLE1=One Good Reason
TTITLE2=Find It For Yourself
TTITLE3=I Do
TTITLE4=Too Late
TTITLE5=Drowning In The Sea Of Love
TTITLE6=No Substitute
TTITLE7=Since You Left
TTITLE8=I'm Gonna Miss You (Like The Devil)
TTITLE9=Checkin' Out
TTITLE10=Hard Times
TTITLE11=Have A Good Time (All The Time)
EXTD=
EXTT0=
EXTT1=
EXTT2=
EXTT3=
EXTT4=
EXTT5=
EXTT6=
EXTT7=
EXTT8=
EXTT9=
EXTT10=
EXTT11=
PLAYORDER=
